<?xml version="1.0" encoding="UTF-8" standalone="no"?>
<!-- Created with Inkscape (http://www.inkscape.org/) -->

<svg
   xmlns:dc="http://purl.org/dc/elements/1.1/"
   xmlns:cc="http://creativecommons.org/ns#"
   xmlns:rdf="http://www.w3.org/1999/02/22-rdf-syntax-ns#"
   xmlns:svg="http://www.w3.org/2000/svg"
   xmlns="http://www.w3.org/2000/svg"
   xmlns:sodipodi="http://sodipodi.sourceforge.net/DTD/sodipodi-0.dtd"
   xmlns:inkscape="http://www.inkscape.org/namespaces/inkscape"
   width="2.0000007in"
   height="2.0000007in"
   viewBox="0 0 2.0000007 2.0000007"
   id="SVGRoot"
   version="1.1"
   inkscape:version="0.92.4 (5da689c313, 2019-01-14)"
   sodipodi:docname="logotvmt5SIGNAL.svg"
   inkscape:export-filename="logotvmt5.jpg"
   inkscape:export-xdpi="500"
   inkscape:export-ydpi="500">
  <metadata
     id="metadata65">
    <rdf:RDF>
      <cc:Work
         rdf:about="">
        <dc:format>image/svg+xml</dc:format>
        <dc:type
           rdf:resource="http://purl.org/dc/dcmitype/StillImage" />
        <dc:title></dc:title>
      </cc:Work>
    </rdf:RDF>
  </metadata>
  <sodipodi:namedview
     inkscape:document-units="in"
     inkscape:zoom="4"
     inkscape:cx="143.28188"
     inkscape:cy="60.150795"
     id="namedview1"
     pagecolor="#ffffff"
     bordercolor="#000000"
     borderopacity="0.25"
     inkscape:showpageshadow="2"
     inkscape:pageopacity="0.0"
     inkscape:pagecheckerboard="0"
     inkscape:deskcolor="#d1d1d1"
     showguides="true"
     inkscape:window-width="3840"
     inkscape:window-height="2066"
     inkscape:window-x="-11"
     inkscape:window-y="-11"
     inkscape:window-maximized="1"
     inkscape:current-layer="layer1"
     inkscape:export-bgcolor="#ffffffff"
     showgrid="false"
     inkscape:guide-bbox="true">
    <sodipodi:guide
       position="-0.29675081,0.9499997"
       orientation="1,0"
       id="guide5"
       inkscape:locked="false" />
    <inkscape:grid
       type="xygrid"
       id="grid891" />
  </sodipodi:namedview>
  <defs
     id="defs1" />
  <g
     inkscape:label="Capa 1"
     inkscape:groupmode="layer"
     id="layer1"
     transform="translate(-0.63344997)">
    <g
       style="fill:#000000;fill-opacity:1"
       transform="translate(-0.04645825,-1.9468461)"
       id="g64">
      <path
         style="color:#000000;fill:#000000;fill-opacity:1;stroke-width:1.61805153;stroke-linecap:square;paint-order:fill markers stroke"
         d="m 0.72479614,2.4140496 0.001218,0.2243782 H 1.1398432 V 3.3842483 3.5485817 H 1.4421744 V 3.4337263 a 0.51769166,0.51769166 0 0 0 0.2062398,0.051222 l -0.035289,0.063633 H 1.9437665 L 2.6298384,2.4140496 H 2.2420157 L 2.0955246,2.6783259 A 0.51769166,0.51769166 0 0 0 1.6671454,2.4504912 0.51769166,0.51769166 0 0 0 1.4421744,2.5024051 V 2.41405 Z M 1.6712271,2.5442784 a 0.08189363,0.08189363 0 0 1 0.079303,0.061592 0.26219757,0.27699317 0 0 1 0.1738142,0.19508 0.26219757,0.27699317 86.242196 0 1 0.1129788,0.1940267 0.26219757,0.27699317 86.242196 0 1 -0.00207,0.047996 0.08189363,0.08189363 0 0 1 0.032129,0.059749 0.08189363,0.08189363 0 0 1 -0.07634,0.087137 0.08189363,0.08189363 0 0 1 -0.025381,-0.00244 A 0.26219757,0.27699317 86.242196 0 1 1.7781196,3.2747561 0.26219757,0.27699317 86.242196 0 1 1.6665566,3.2600481 0.26219757,0.27699317 60.923092 0 1 1.373739,3.1926631 0.08189363,0.08189363 0 0 1 1.332887,3.2030331 0.08189363,0.08189363 0 0 1 1.252334,3.1198141 0.08189363,0.08189363 0 0 1 1.309152,3.0433761 0.26219757,0.27699317 60.923092 0 1 1.4163377,2.8083319 0.26219757,0.27699317 0 0 1 1.5919954,2.6061415 0.08189363,0.08189363 0 0 1 1.6712334,2.5442865 Z m 0,0.1133735 a 0.29224785,0.29224785 0 0 0 -0.2545979,0.1504092 0.26219757,0.27699317 60.923092 0 1 0.00191,-0.00165 0.29224785,0.29224785 0 0 0 -0.048062,0.1557082 0.29224785,0.29224785 0 0 0 0.2875174,0.2968668 0.29224785,0.29224785 0 0 0 0.013964,-7.572e-4 0.26219757,0.27699317 60.923092 0 1 -0.00405,0.00135 0.29224785,0.29224785 0 0 0 0.034828,3.28e-5 0.29224785,0.29224785 0 0 0 0.2724733,-0.3107915 0.29224785,0.29224785 0 0 0 -0.050005,-0.144746 0.26219757,0.27699317 0 0 1 7.243e-4,0.0027 0.29224785,0.29224785 0 0 0 -0.2546971,-0.1491244 z m 0.00217,0.031439 A 0.27330427,0.27330427 0 0 1 1.9466963,2.9623869 0.27330427,0.27330427 0 0 1 1.6733998,3.2356504 0.27330427,0.27330427 0 0 1 1.4001035,2.9623869 0.27330427,0.27330427 0 0 1 1.6733998,2.6890906 Z m -0.065577,0.1036635 -0.020344,0.1674278 c 0.011032,-0.00132 0.022536,-0.00223 0.037562,-0.00223 0.056541,0 0.08615,0.022578 0.08615,0.062778 0,0.038447 -0.031332,0.060044 -0.065344,0.060044 -0.02562,0 -0.049943,-0.00836 -0.063206,-0.015436 l -0.012767,0.049478 c 0.016346,0.00884 0.046368,0.017217 0.0795,0.017217 0.078631,0 0.127661,-0.052616 0.127661,-0.116666 0,-0.072003 -0.054767,-0.1046507 -0.1130769,-0.1046507 -0.00709,0 -0.012378,4.662e-4 -0.018567,0.00135 l 0.00881,-0.065378 h 0.1135059 v -0.053921 z"
         id="path5"
         inkscape:connector-curvature="0" />
    </g>
    <g
       style="fill:#fefefe;fill-opacity:1"
       id="g63"
       transform="matrix(1.6010125,0,0,1.6010125,-0.64257219,-1.5437398)">
      <g
         style="fill:#fefefe;fill-opacity:1"
         transform="matrix(1.1530631,0,0,1.1530631,-0.17217092,-0.15484107)"
         id="g19">
        <g
           style="fill:#fefefe;fill-opacity:1"
           transform="matrix(0.4128582,0,0,0.4128582,0.29788901,0.94855067)"
           id="g18" />
      </g>
      <g
         style="fill:#fefefe;fill-opacity:1"
         transform="translate(0.17776981,-0.6939638)"
         id="g62">
        <g
           style="fill:#fefefe;fill-opacity:1"
           transform="translate(-0.22886676,0.37992781)"
           id="g33">
          <g
             style="fill:#fefefe;fill-opacity:1"
             transform="matrix(0.4128582,0,0,0.4128582,0.29691751,0.95632271)"
             id="g32" />
        </g>
      </g>
    </g>
  </g>
</svg>
